<svg xmlns="http://www.w3.org/2000/svg" xmlns:xlink="http://www.w3.org/1999/xlink" viewBox="0,0,256,256" width="50px" height="50px" fill-rule="nonzero"><g fill="none" fill-rule="nonzero" stroke="none" stroke-width="1" stroke-linecap="butt" stroke-linejoin="miter" stroke-miterlimit="10" stroke-dasharray="" stroke-dashoffset="0" font-family="none" font-weight="none" font-size="none" text-anchor="none" style="mix-blend-mode: normal"><g transform="scale(5.12,5.12)"><path d="M18.87,7.493c-2.228,0.341 -4.516,0.741 -6.651,1.481c-1.643,0.57 -3.221,1.459 -4.131,2.978c-0.043,0.057 -0.092,0.105 -0.133,0.165c-1.022,1.494 -1.334,3.36 -1.505,5.124c-0.224,2.313 -0.299,4.648 -0.298,6.971c0.002,4.563 0.413,9.118 1.164,13.618c0.011,0.152 0.018,0.304 0.03,0.456c0.054,0.661 0.147,1.343 0.387,1.964c0.003,0.014 0.005,0.028 0.007,0.042c0.006,0.031 0.022,0.05 0.032,0.077c0.006,0.013 0.011,0.026 0.017,0.039c0.017,0.035 0.032,0.071 0.055,0.098c0.084,0.177 0.174,0.353 0.292,0.514c0.623,0.854 1.629,1.186 2.628,1.368c1.189,0.216 2.396,0.36 3.601,0.453c0.36,0.028 0.721,0.038 1.082,0.056c1.572,0.138 3.149,0.221 4.725,0.252c5.325,0.108 10.653,-0.292 15.957,-0.723c2.123,-0.173 4.206,-0.584 5.494,-2.446c0.38,-0.55 0.637,-1.146 0.819,-1.766c0.729,-1.332 1.315,-4.534 1.326,-4.654c0.231,-2.66 -0.081,-14.279 -0.4,-16.421c-0.293,-1.973 -0.647,-4.062 -1.482,-5.889c-0.764,-1.67 -2.109,-2.77 -3.845,-3.326c-1.888,-0.605 -3.972,-0.753 -5.938,-0.913c-4.411,-0.356 -8.858,-0.187 -13.233,0.482z" fill="#b4b9bb"></path><path d="M34.844,11.484c-2.25,-0.995 -4.716,-0.398 -6.419,1.378c-1.836,1.915 -2.206,4.664 -2.331,7.2c-0.313,6.383 -0.284,12.795 -0.085,19.18c0.06,1.926 3.06,1.934 3,0c-0.16,-5.128 -0.18,-10.26 -0.045,-15.389c0.059,-2.245 -0.074,-4.674 0.541,-6.855c0.412,-1.463 1.969,-3.745 3.825,-2.924c1.75,0.774 3.278,-1.81 1.514,-2.59z" fill="#ffffff"></path><path d="M22.17,24.215c3.702,-0.033 7.404,-0.065 11.106,-0.098c1.929,-0.017 1.934,-3.017 0,-3c-3.702,0.033 -7.404,0.065 -11.106,0.098c-1.93,0.017 -1.934,3.017 0,3z" fill="#ffffff"></path><path d="M9.595,16.78c0.974,-2.131 2.628,-3.88 4.709,-4.959c0.571,-0.296 0.066,-1.16 -0.505,-0.863c-2.215,1.149 -4.03,3.048 -5.067,5.318c-0.112,0.245 -0.07,0.538 0.179,0.684c0.215,0.125 0.572,0.067 0.684,-0.18z" fill="#231f20"></path><path d="M40.444,33.594c-0.371,2.355 -2.023,4.177 -3.584,5.865c-0.436,0.472 0.269,1.181 0.707,0.707c1.669,-1.805 3.444,-3.788 3.841,-6.306c0.042,-0.266 -0.068,-0.538 -0.349,-0.615c-0.238,-0.066 -0.573,0.081 -0.615,0.349z" fill="#231f20"></path><path d="M40.763,6.218c0.577,-0.86 1.153,-1.721 1.73,-2.581c0.139,-0.208 0.166,-0.536 0.101,-0.771c-0.064,-0.232 -0.243,-0.483 -0.46,-0.598c-0.504,-0.266 -1.057,-0.106 -1.368,0.359c-0.577,0.86 -1.153,1.721 -1.73,2.581c-0.139,0.208 -0.166,0.536 -0.101,0.771c0.064,0.232 0.243,0.483 0.46,0.598c0.503,0.266 1.056,0.106 1.368,-0.359z" fill="#b4b9bb"></path><path d="M44.029,8.604c0.254,-0.279 0.531,-0.535 0.829,-0.767c-0.067,0.052 -0.135,0.104 -0.202,0.156c0.45,-0.345 0.939,-0.631 1.461,-0.852c-0.08,0.034 -0.159,0.067 -0.239,0.101c0.285,-0.118 0.577,-0.217 0.876,-0.295c0.506,-0.132 0.863,-0.721 0.698,-1.23c-0.169,-0.521 -0.688,-0.84 -1.23,-0.698c-1.372,0.358 -2.652,1.122 -3.607,2.171c-0.352,0.387 -0.411,1.037 0,1.414c0.384,0.353 1.038,0.413 1.414,0z" fill="#b4b9bb"></path><path d="M45.436,12.258c0.085,0.006 0.17,0.015 0.255,0.026c-0.089,-0.012 -0.177,-0.024 -0.266,-0.036c0.361,0.05 0.713,0.145 1.05,0.285c-0.08,-0.034 -0.159,-0.067 -0.239,-0.101c0.178,0.075 0.349,0.161 0.516,0.259c0.223,0.131 0.521,0.17 0.771,0.101c0.232,-0.064 0.483,-0.243 0.598,-0.46c0.123,-0.232 0.184,-0.513 0.101,-0.771c-0.08,-0.249 -0.23,-0.463 -0.46,-0.598c-0.713,-0.42 -1.503,-0.645 -2.325,-0.706c-0.244,-0.018 -0.539,0.125 -0.707,0.293c-0.173,0.173 -0.304,0.458 -0.293,0.707c0.012,0.259 0.097,0.527 0.293,0.707c0.067,0.052 0.135,0.104 0.202,0.156c0.155,0.092 0.323,0.137 0.504,0.138z" fill="#b4b9bb"></path><path d="M2.14,44.299c0.988,-0.387 1.976,-0.773 2.964,-1.16c0.25,-0.098 0.457,-0.219 0.598,-0.46c0.125,-0.214 0.179,-0.53 0.101,-0.771c-0.078,-0.242 -0.228,-0.475 -0.46,-0.598c-0.224,-0.118 -0.524,-0.197 -0.771,-0.101c-0.988,0.387 -1.976,0.773 -2.964,1.16c-0.25,0.098 -0.457,0.219 -0.598,0.46c-0.125,0.214 -0.179,0.53 -0.101,0.771c0.078,0.242 0.228,0.475 0.46,0.598c0.224,0.119 0.525,0.198 0.771,0.101z" fill="#b4b9bb"></path><path d="M5.827,47.763c0.744,-0.691 1.489,-1.382 2.233,-2.073c0.384,-0.357 0.388,-1.058 0,-1.414c-0.411,-0.378 -1.004,-0.381 -1.414,0c-0.744,0.691 -1.489,1.382 -2.233,2.073c-0.384,0.357 -0.388,1.058 0,1.414c0.411,0.377 1.004,0.38 1.414,0z" fill="#b4b9bb"></path><path d="M10.452,45.282c0.479,0.511 0.957,1.021 1.436,1.532c0.172,0.183 0.459,0.293 0.707,0.293c0.245,0 0.538,-0.109 0.707,-0.293c0.175,-0.191 0.305,-0.441 0.293,-0.707c-0.012,-0.27 -0.106,-0.508 -0.293,-0.707c-0.479,-0.511 -0.957,-1.021 -1.436,-1.532c-0.172,-0.183 -0.459,-0.293 -0.707,-0.293c-0.245,0 -0.538,0.109 -0.707,0.293c-0.175,0.191 -0.305,0.441 -0.293,0.707c0.013,0.27 0.106,0.507 0.293,0.707z" fill="#b4b9bb"></path></g></g></svg>